<svg id="Layer_1" data-name="Layer 1" xmlns="http://www.w3.org/2000/svg" viewBox="0 0 122.88 68.29"><defs><style>.cls-1{fill:#dddcd7;}.cls-2{fill-rule:evenodd;}.cls-3{fill:#f35045;}</style></defs><rect class="cls-1" width="122.88" height="68.29"/><path class="cls-2" d="M90.7,9.24l1.8,2A1.13,1.13,0,0,1,92.23,13l-1.91,1.26A8.51,8.51,0,0,1,91,16.82l2.18.26a1.29,1.29,0,0,1,1.22,1.39L94,21a1.4,1.4,0,0,1-1.61,1.05L90,21.81a9.53,9.53,0,0,1-1.6,2.2l1.33,1.52a1.13,1.13,0,0,1-.28,1.73l-2.37,1.56a1.6,1.6,0,0,1-2-.23l-1.45-1.66a12.89,12.89,0,0,1-2.93.57l-.3,1.89a1.41,1.41,0,0,1-1.61,1.05l-3-.35A1.27,1.27,0,0,1,74.6,28.7l.32-2.06a11.87,11.87,0,0,1-2.53-1.39L70.64,26.4a1.58,1.58,0,0,1-2-.23l-1.8-2.06a1.12,1.12,0,0,1,.27-1.73L69,21.12a8.58,8.58,0,0,1-.66-2.54l-2.18-.26A1.27,1.27,0,0,1,65,16.93l.41-2.56A1.41,1.41,0,0,1,67,13.31l2.38.28A9.82,9.82,0,0,1,71,11.4L69.63,9.88a1.12,1.12,0,0,1,.27-1.73l2.37-1.56a1.58,1.58,0,0,1,2,.23l1.45,1.66a12.89,12.89,0,0,1,2.93-.57L79,6A1.4,1.4,0,0,1,80.55,5l3,.35A1.28,1.28,0,0,1,84.73,6.7L84.4,8.77a10.92,10.92,0,0,1,2.54,1.39L88.7,9a1.56,1.56,0,0,1,2,.23ZM39.81,45.44V35.49h5.92a9.44,9.44,0,0,1,2.51.25,2.63,2.63,0,0,1,1.4.9,2.54,2.54,0,0,1,.53,1.62,2.51,2.51,0,0,1-.41,1.43,3,3,0,0,1-1.12,1,4.78,4.78,0,0,1-1.24.39,3.38,3.38,0,0,1,.92.37,3.29,3.29,0,0,1,.56.52,4.47,4.47,0,0,1,.49.62l1.73,2.88h-4l-1.89-3a2.34,2.34,0,0,0-.64-.77,1.71,1.71,0,0,0-.87-.23h-.32v4H39.81ZM52.32,62.78H45.7l-1,2.7h-6l7.12-16.4H52.3l7.09,16.4H53.26l-.94-2.7Zm-1.23-3.56L49,53.32l-2.08,5.9Zm9.68-10.14H70.5a7.29,7.29,0,0,1,4.76,1.31,4.58,4.58,0,0,1,1.58,3.73A4.73,4.73,0,0,1,75.11,58c-1.15.94-2.91,1.4-5.27,1.4H66.63v6.07H60.77V49.08Zm5.86,7h1.44a4.1,4.1,0,0,0,2.4-.52,1.54,1.54,0,0,0,.69-1.3,1.7,1.7,0,0,0-.6-1.31,3.51,3.51,0,0,0-2.25-.54H66.63v3.67Zm12.57-7h5.87v16.4H79.2V49.08ZM43.37,39.53h1.5a6.51,6.51,0,0,0,.94-.14,1,1,0,0,0,.58-.31.84.84,0,0,0,.22-.58.87.87,0,0,0-.35-.74,2.35,2.35,0,0,0-1.33-.26H43.37v2Zm8.41-4h9.5v2.12H55.34V39.2h5.51v2H55.34v2h6.12v2.25H51.78V35.49ZM62.3,42.15,65.67,42a1.79,1.79,0,0,0,2,1.68,1.89,1.89,0,0,0,1.17-.31.88.88,0,0,0,.41-.71.89.89,0,0,0-.39-.7,5.23,5.23,0,0,0-1.82-.58,8.46,8.46,0,0,1-3.33-1.2,2.32,2.32,0,0,1-1-1.92,2.39,2.39,0,0,1,.52-1.45,3.35,3.35,0,0,1,1.54-1.07,8.25,8.25,0,0,1,2.83-.39A6.47,6.47,0,0,1,71,36a3,3,0,0,1,1.37,2.26L69,38.47a1.49,1.49,0,0,0-.56-1,1.93,1.93,0,0,0-1.17-.31,1.63,1.63,0,0,0-.94.23A.69.69,0,0,0,66,38a.55.55,0,0,0,.26.43,3.33,3.33,0,0,0,1.18.37,16.47,16.47,0,0,1,3.34.88,3.43,3.43,0,0,1,1.46,1.1,2.57,2.57,0,0,1,.46,1.48A2.84,2.84,0,0,1,72.1,44a3.69,3.69,0,0,1-1.7,1.22,7.78,7.78,0,0,1-2.76.42c-2,0-3.31-.33-4.06-1a3.7,3.7,0,0,1-1.28-2.49Zm10.93-6.66H84V38H80.41v7.49H76.86V38H73.23V35.49ZM61.29,11.86a25.91,25.91,0,0,0-3.84,0,22.89,22.89,0,0,0-10.87,3.68,17.47,17.47,0,0,0-7.47,10.94L38.78,28,37,28.3a27.12,27.12,0,0,0-4.56,1.07A16,16,0,0,0,29,31a10.5,10.5,0,0,0-2.1,1.69,9.41,9.41,0,0,0-2.66,6.69,11.06,11.06,0,0,0,2.64,7,12,12,0,0,0,2.2,2A11.49,11.49,0,0,0,32,49.87a18.11,18.11,0,0,0,1.93.54v4.52A21.27,21.27,0,0,1,30,54a16.57,16.57,0,0,1-7.27-5,15.18,15.18,0,0,1-3.6-9.55A13.49,13.49,0,0,1,23,29.81a16.43,16.43,0,0,1,3-2.44,22.16,22.16,0,0,1,4.62-2.14,31.91,31.91,0,0,1,3.83-1,21.78,21.78,0,0,1,9-12.15A28.52,28.52,0,0,1,57,7.49a31.88,31.88,0,0,1,7.68.29,4.15,4.15,0,0,0-.14.61v0a5.18,5.18,0,0,0,0,1,6.25,6.25,0,0,0-1.49.73h0a5.62,5.62,0,0,0-1.67,1.66ZM98.11,23.45a14.64,14.64,0,0,1,1.14,1,19.32,19.32,0,0,1,2.11,2.35,18,18,0,0,1,3.32,10.81A16.19,16.19,0,0,1,101,48a18.58,18.58,0,0,1-6,4.47,31,31,0,0,1-5.58,2V49.79a25.5,25.5,0,0,0,3.07-1.21,13.73,13.73,0,0,0,4.44-3.26,12.08,12.08,0,0,0,2.63-7.77,13.8,13.8,0,0,0-2.5-8.36,11.92,11.92,0,0,0-1.56-1.74c-.22-.2-.43-.39-.66-.57a4.7,4.7,0,0,0,0-.92,6.25,6.25,0,0,0,1.49-.73h0a5.75,5.75,0,0,0,1.74-1.77ZM80.46,12.67c3.21.38,5.45,2.94,5,5.73s-3.39,4.73-6.6,4.35-5.46-2.95-5-5.73,3.39-4.73,6.6-4.35Z"/><path class="cls-3" d="M19.8,18.32c.14.23.23.21.35.16s6-2.19,6.21-2.26.13-.13.07-.23-2-3-2.13-3.12-.15-.13-.3-.08l-6.28,1.75S19.65,18.09,19.8,18.32Zm7.07-2.91V12.06l-2,.56C25.45,13.38,26.28,14.56,26.87,15.41Zm-2-6.91L22.54,9c-.13,0-.09.1,0,.18l1.89,2.76,2.44-.65h0v-.37L25.21,8.62c-.12-.18-.2-.15-.3-.12Z"/><path class="cls-3" d="M11.44,4.17c.46,0,.5.09.71.41l5.11,9.12,6.44-1.64L21.57,8.84c-.18-.26,0-.39.29-.44l3-.52c.21,0,.37-.12.72.33L26.87,10V5.69A3.75,3.75,0,0,0,25.82,3a3.31,3.31,0,0,0-2.51-1.11H11.48A3.31,3.31,0,0,0,9,3a3.74,3.74,0,0,0-.86,1.42c1.16-.1,3-.26,3.33-.27Z"/><path class="cls-3" d="M20.38,19.55c-.55.17-.79.26-1.14-.27s-1.7-3.14-2.4-4.5c-1.33.37-3.76,1.05-4.46,1.23a.85.85,0,0,1-1.09-.53c-.08-.19-2.09-4.8-3.37-7.76v10.6A3.75,3.75,0,0,0,9,21a3.29,3.29,0,0,0,2.51,1.12H23.31A3.29,3.29,0,0,0,25.82,21a3.75,3.75,0,0,0,1.05-2.67V17.07C25.41,17.64,20.74,19.43,20.38,19.55Z"/><path class="cls-3" d="M12.39,15l3.88-1c.07,0,.12-.06,0-.21s-4.8-8.85-4.8-8.85,0-.1-.15-.1L8,5.12a3,3,0,0,0,0,.42c.63,1.37,4.23,9.3,4.25,9.36s0,.09.21,0Z"/></svg>